PathFileType	4	(X/Y/Z)	pose_F01_0-96.trc
DataRate	CameraRate	NumFrames	NumMarkers	Units	OrigDataRate	OrigDataStartFrame	OrigNumFrames
30	30	9	21	m	30	12	96
Frame#	Time	CHip			RHip			RKnee			RAnkle			RBigToe			RSmallToe			RHeel			LHip			LKnee			LAnkle			LBigToe			LSmallToe			LHeel			Neck			Nose			RShoulder			RElbow			RWrist			LShoulder			LElbow			LWrist			
		X1	Y1	Z1	X2	Y2	Z2	X3	Y3	Z3	X4	Y4	Z4	X5	Y5	Z5	X6	Y6	Z6	X7	Y7	Z7	X8	Y8	Z8	X9	Y9	Z9	X10	Y10	Z10	X11	Y11	Z11	X12	Y12	Z12	X13	Y13	Z13	X14	Y14	Z14	X15	Y15	Z15	X16	Y16	Z16	X17	Y17	Z17	X18	Y18	Z18	X19	Y19	Z19	X20	Y20	Z20	X21	Y21	Z21	
12	0.4	-0.1458131995159681	1.8304324471417803	-0.5319795629274929	-0.15992365347561627	1.8302664562731616	-0.47632398197352155	-0.18568591676205254	1.7079946072702588	-0.47161633115480206	-0.17325240241736115	1.5891767569288464	-0.4722186942386696	-0.2511509270466865	1.5381125336092751	-0.5274546943441707				-0.13513243636947336	1.5916589241795056	-0.4523827528985625	-0.12769201465291574	1.832476162394324	-0.587100726319309	-0.12101248492684723	1.7082093114812384	-0.54362618702755	-0.11640103952636083	1.586875184209432	-0.5034727322402909	-0.14929672553149234	1.575033375051462	-0.5107685444071676	-0.13692767673233394	1.5758396151309382	-0.535194095439688	-0.10868827960818764	1.5797135215376545	-0.5029348140645179	-0.13366330993132286	1.9749132050890095	-0.5605148392708068	-0.16872131157807355	2.035424125291896	-0.5636203189162255	-0.15101871386157534	1.9721516251374964	-0.47707060034451604	-0.15725151743431043	1.8941687518198942	-0.42628112558202963	-0.16618671112677375	1.8203320206009757	-0.40840834094227274	-1.7330135588348028	1.8879504702472556	1.1563537797863621	-0.08917667751294334	1.9280631091872282	-0.7079579634824907	-0.11382099028782047	1.9368212434135932	-0.7150832158991635
13	0.43333333333333335	-0.15018122518551705	1.8264402850949715	-0.5269398351163909	-0.16329012095817372	1.8248070613309633	-0.47641281323462426	-0.18867061416998318	1.7076754619921934	-0.47259542956442696	-0.17325240241736115	1.5891767569288464	-0.4722186942386696	-0.2511509270466865	1.5381125336092751	-0.5274546943441707				-0.13513243636947336	1.5916589241795056	-0.4523827528985625	-0.13098860072764273	1.8283704455894478	-0.5872027177434199	-0.1210440736787661	1.7076405453633865	-0.5436183158283181	-0.11572517394886005	1.5897107485541782	-0.5035186763926331	-0.14929672553149234	1.575033375051462	-0.5107685444071676	-0.13692767673233394	1.5758396151309382	-0.535194095439688	-0.10953378585568105	1.5825236680689505	-0.4963446685230488	-0.1410256085449755	1.973167014196162	-0.5567656392318494	-0.1736395175293408	2.0361597834853247	-0.5623336775331165	-0.16201109148818985	1.9707530043157275	-0.4690536407560945	-0.16333007482397788	1.8906118543346524	-0.4277115415918368	-0.16830463863839898	1.8174810527794723	-0.40585520758634386	-1.703292311194815	1.8877276106570702	1.1037997857190982	-0.10798632092993801	1.938832222595459	-0.719978747549688	-0.13512546069519502	1.9767541661458508	-0.7236632228965035
14	0.4666666666666667	-0.15366481141275587	1.8301364401823492	-0.531665948268321	-0.17146103845867192	1.827399057567632	-0.47150719030097005	-0.18949420338071832	1.7036386710591016	-0.47147087291044	-0.17325240241736115	1.5891767569288464	-0.4722186942386696	-0.2511509270466865	1.5381125336092751	-0.5274546943441707				-0.13513243636947336	1.5916589241795056	-0.4523827528985625	-0.13850130979512187	1.8319064506432732	-0.587535817266396	-0.12572207045678813	1.7104240624870346	-0.5433819821793943	-0.11580816367095274	1.5901706035492342	-0.5037421730466726	-0.14929672553149234	1.575033375051462	-0.5107685444071676	-0.13692767673233394	1.5758396151309382	-0.535194095439688	-0.1085458686965383	1.5832692161892759	-0.501982148755176	-0.14797047850632805	1.9743736532161924	-0.5530221771768942	-0.17951135984814307	2.0353348929229615	-0.5635069410723352	-0.16777162206920077	1.9696136042542405	-0.4705807265331712	-0.17098227338554972	1.8886169853697854	-0.4362049159240258	-0.17413149730752192	1.80488149856477	-0.4021197324477499	-1.6844650938041086	1.8879498202990674	1.0700010589194717	-1.4331737808373728	1.873545065560994	0.6694006076907485	-0.15203744577607198	2.0075113887639238	-0.6873323557236305
15	0.5	-0.1662060015172755	1.8320277610351299	-0.5394184980029393	-0.1822463862415465	1.829165543272803	-0.48166544272045475	-0.1989929469452678	1.6976496711032174	-0.46459841017462145	-0.17325240241736115	1.5891767569288464	-0.4722186942386696	-0.2511509270466865	1.5381125336092751	-0.5274546943441707				-0.13513243636947336	1.5916589241795056	-0.4523827528985625	-0.1481262666604952	1.8347346358831593	-0.5940622842260003	-0.1365299481441864	1.7079505187336346	-0.5441078312773728	-0.11698098294510488	1.5887391619957403	-0.5063942704036658	-0.14929672553149234	1.575033375051462	-0.5107685444071676	-0.13692767673233394	1.5758396151309382	-0.535194095439688	-0.10960902426915801	1.5816143813541859	-0.504444333258424	-0.15416603532040557	1.9752734374161973	-0.5462633057774053	-0.18612824875036624	2.0348114224185005	-0.5771752789350307	-0.17461219219753948	1.970881610904231	-0.4757062878493006	-0.1807397137675449	1.8870257587017818	-0.43389412157116225	-0.1844687380032389	1.8026983941580612	-0.4127741136011865	-1.6754782582539276	1.8879454660004305	1.0534702892813783	-1.4131388590802467	1.885969934266186	0.6269953330026358	-0.1597730595342634	2.035021978893961	-0.6697775505312871
16	0.5333333333333333	-0.1749173380270757	1.8298823860952325	-0.5334153278462894	-0.19161602855978385	1.8247176632446989	-0.478906853424433	-0.207877171694469	1.6981770331389225	-0.47749935757273676	-0.17325240241736115	1.5891767569288464	-0.4722186942386696	-0.2511509270466865	1.5381125336092751	-0.5274546943441707				-0.13513243636947336	1.5916589241795056	-0.4523827528985625	-0.15714282024251403	1.8332070404036178	-0.5878217572745181	-0.1384636814922518	1.7063588737583861	-0.5331823667455926	-0.11662497927960734	1.5896614066050665	-0.5069934465073144	-0.14929672553149234	1.575033375051462	-0.5107685444071676	-0.13692767673233394	1.5758396151309382	-0.535194095439688	-0.1090538661220644	1.5818465359487268	-0.5050210597410776	-0.16514989115973103	1.9770476724423995	-0.5469284904922146	-0.19137335406007205	2.035691408801038	-0.5762977083027403	-0.18635324163446945	1.9706353644883916	-0.4709243664129866	-0.18957777101254708	1.8850784320230265	-0.44581781152967664	-0.1997372585070959	1.7996461083817423	-0.41797920931431487	-0.1448269114767773	1.9814280433672904	-0.6236013478925779	-0.14168101745863027	1.9885887655759906	-0.7194289477844412	-0.16323317833825834	2.043298263351892	-0.6434504767029265
17	0.5666666666666667	-0.18511451468858997	1.832526124103529	-0.5277115716521795	-0.2027320784814997	1.828981382260279	-0.47652629705266103	-0.21300664511016212	1.6984923363425581	-0.4763029284033653	-0.17325240241736115	1.5891767569288464	-0.4722186942386696	-0.2511509270466865	1.5381125336092751	-0.5274546943441707				-0.13513243636947336	1.5916589241795056	-0.4523827528985625	-0.16758359558717664	1.8354746738845813	-0.5819283882764226	-0.15607377861924673	1.7054074244912143	-0.5441437003439659	-0.1182319219770534	1.595714739718129	-0.5102580840154798	-0.15318401509937338	1.5715712922563916	-0.5269878627935081	-0.13856255829258163	1.574377920620623	-0.5419881454538147	-0.11102661510982618	1.5844761217139647	-0.5029584773428041	-1.782303032561234	1.8896621780557483	1.2322571468739612	-0.19428539115577753	2.037493999813929	-0.5771685659937477	-0.19336712893180055	1.9729899569458238	-0.4679702483161352	-0.20632478282561015	1.8855437729168676	-0.44003624382249656	-0.21500577901095289	1.7965938226054237	-0.42318430502744325	-0.14907890140275593	1.9833471761528116	-0.6191933393034595	-0.13919440275353953	1.9916658572590957	-0.7218753659707668	-0.1579731595460566	2.0406773094255084	-0.6542024099947642
18	0.6	-0.1969366766337433	1.830553854478866	-0.5313765651401232	-0.21731527738399223	1.8286207251847562	-0.4818316427074093	-0.22244394463054964	1.6938956174574675	-0.4698769026812806	-0.17325240241736115	1.5891767569288464	-0.4722186942386696	-0.2511509270466865	1.5381125336092751	-0.5274546943441707				-0.13513243636947336	1.5916589241795056	-0.4523827528985625	-0.179210438625414	1.832349063256148	-0.585300085425264	-0.17145132199593452	1.7028052007562235	-0.5490381794569064	-0.12716865011504794	1.6022720987723316	-0.5228380896410311	-0.14361478017349547	1.5707086019834937	-0.5160633257936785	-0.1317737790063068	1.5761034547738801	-0.5415837304236649	-0.11678011911362424	1.5960978979340876	-0.502406412588568	-1.7744398129122243	1.8894948140953944	1.2166225462733673	-0.2006407737669068	2.042514524861773	-0.5907651175953438	-0.20520532267142735	1.973109223533376	-0.46334465719235496	-0.22061273026647446	1.8908083362709167	-0.43358797592618525	-0.23888957623451365	1.8240993220774773	-0.434569480049696	-0.1554377501807309	1.9817190869160206	-0.6118157123775357	-0.13436360716794749	1.98942329094337	-0.7236053229277084	-0.1541320383412591	2.046740232930395	-0.6720121398815224
19	0.6333333333333333	-0.20757801723694644	1.8259672649026495	-0.5281646765484058	-0.22531093403639307	1.8220623525792174	-0.4772899501293124	-0.22822074339242102	1.6905240223627955	-0.46769401519249043	-0.17325240241736115	1.5891767569288464	-0.4722186942386696	-0.2511509270466865	1.5381125336092751	-0.5274546943441707				-0.13513243636947336	1.5916589241795056	-0.4523827528985625	-0.18718878126476027	1.8297734296502357	-0.5810939296026003	-0.18857487852031493	1.7061267256477943	-0.5569584512454898	-0.13646301430844548	1.6043993879272724	-0.5174388452177658	-0.14850118393556647	1.5721525328055594	-0.5196937441218757	-0.13814034347031134	1.5773420548093513	-0.543499394006	-0.12568451233621933	1.6015763947927686	-0.49769132223446566	-1.7937075329344485	1.8896709066952255	1.2514231366597548	-0.20232225821589453	2.0451405746762745	-0.5972774594939934	-0.21505215080751955	1.9744825006250715	-0.46941498552628036	-0.23753107332649806	1.8887779253046644	-0.4365402854485961	-0.25969526579778546	1.8184128449925505	-0.43855678692779887	-1.7143312603493541	1.8895562767075205	1.1165140197035213	-0.138758083906787	1.9753619963446156	-0.6987719661512359	-0.153265883246616	2.016749541592683	-0.6725439714964359
20	0.6666666666666666	-0.2132449683870458	1.8247496655221314	-0.5266447538347002	-0.23070523396622486	1.821939888166547	-0.47614565365627404	-0.22928215820843653	1.6960551430837953	-0.4715561000809027	-0.17325240241736115	1.5891767569288464	-0.4722186942386696	-0.2511509270466865	1.5381125336092751	-0.5274546943441707				-0.13513243636947336	1.5916589241795056	-0.4523827528985625	-0.19365451442755474	1.8281481763706722	-0.5826737850595101	-0.20732060773396263	1.7063376104859047	-0.5716046156067339	-0.14859379149282007	1.6027490702328235	-0.5081187409110507	-0.16633669031556336	1.56565191945249	-0.5374358063305997	-0.15512917058627934	1.5719994431268574	-0.5540105563470537	-0.14180300216201086	1.5980291877319917	-0.4922115565900065	-1.7759055276429938	1.88950027552414	1.2183728038617019	-0.200205576441746	2.0452788237997748	-0.5991351191515407	-0.2270275011332344	1.9729026133275085	-0.46495360955983306	-0.24736282302696658	1.8916571468398773	-0.4349013246878961	-0.2722571561923206	1.8215986468701737	-0.4298570088688864	-0.15671579700358554	1.982513956833018	-0.5860280604996065	-0.14315256064562656	1.961300701745861	-0.6739386093747635	-0.1523997281519729	1.986758850254971	-0.6730758031113493
